<mxfile host="app.diagrams.net" agent="Mozilla/5.0 (Windows NT 10.0; Win64; x64; rv:139.0) Gecko/20100101 Firefox/139.0" version="27.1.1">
  <diagram name="Página-1" id="ZfuYBb1uDBB9Q9XqHdRm">
    <mxGraphModel grid="1" page="1" gridSize="10" guides="1" tooltips="1" connect="1" arrows="1" fold="1" pageScale="1" pageWidth="827" pageHeight="1169" math="0" shadow="0">
      <root>
        <mxCell id="0" />
        <mxCell id="1" parent="0" />
        <mxCell id="_qhp1JzXVMjSBJWWWJ1j-1" style="edgeStyle=orthogonalEdgeStyle;rounded=0;orthogonalLoop=1;jettySize=auto;html=1;exitX=0.5;exitY=0.5;exitDx=0;exitDy=0;exitPerimeter=0;entryX=0;entryY=0.5;entryDx=0;entryDy=0;" edge="1" parent="1" source="_qhp1JzXVMjSBJWWWJ1j-2" target="_qhp1JzXVMjSBJWWWJ1j-3">
          <mxGeometry relative="1" as="geometry" />
        </mxCell>
        <mxCell id="_qhp1JzXVMjSBJWWWJ1j-2" value="Técnico de Laboratorio" style="shape=umlActor;verticalLabelPosition=bottom;verticalAlign=top;html=1;" vertex="1" parent="1">
          <mxGeometry x="70" y="445" width="30" height="60" as="geometry" />
        </mxCell>
        <mxCell id="_qhp1JzXVMjSBJWWWJ1j-3" value="Gestionar Informes Técnicos" style="ellipse;whiteSpace=wrap;html=1;" vertex="1" parent="1">
          <mxGeometry x="160" y="440" width="140" height="70" as="geometry" />
        </mxCell>
        <mxCell id="_qhp1JzXVMjSBJWWWJ1j-4" value="Generando informe técnico" style="ellipse;whiteSpace=wrap;html=1;" vertex="1" parent="1">
          <mxGeometry x="420" y="290" width="140" height="70" as="geometry" />
        </mxCell>
        <mxCell id="_qhp1JzXVMjSBJWWWJ1j-6" value="Confirmando generación de informe técnico" style="ellipse;whiteSpace=wrap;html=1;" vertex="1" parent="1">
          <mxGeometry x="420" y="370" width="140" height="70" as="geometry" />
        </mxCell>
        <mxCell id="_qhp1JzXVMjSBJWWWJ1j-7" value="Rechazando generación de informe técnico" style="ellipse;whiteSpace=wrap;html=1;" vertex="1" parent="1">
          <mxGeometry x="420" y="450" width="140" height="70" as="geometry" />
        </mxCell>
        <mxCell id="_qhp1JzXVMjSBJWWWJ1j-8" value="Agregando términos y condiciones al informe" style="ellipse;whiteSpace=wrap;html=1;" vertex="1" parent="1">
          <mxGeometry x="420" y="530" width="140" height="70" as="geometry" />
        </mxCell>
        <mxCell id="_qhp1JzXVMjSBJWWWJ1j-10" value="Generar identificador único de informe" style="ellipse;whiteSpace=wrap;html=1;" vertex="1" parent="1">
          <mxGeometry x="420" y="610" width="140" height="70" as="geometry" />
        </mxCell>
        <mxCell id="_qhp1JzXVMjSBJWWWJ1j-13" value="Extends" style="endArrow=block;endSize=16;endFill=0;html=1;rounded=0;exitX=1;exitY=0.5;exitDx=0;exitDy=0;entryX=0;entryY=0.5;entryDx=0;entryDy=0;" edge="1" parent="1" source="_qhp1JzXVMjSBJWWWJ1j-3" target="_qhp1JzXVMjSBJWWWJ1j-4">
          <mxGeometry width="160" relative="1" as="geometry">
            <mxPoint x="330" y="590" as="sourcePoint" />
            <mxPoint x="490" y="590" as="targetPoint" />
          </mxGeometry>
        </mxCell>
        <mxCell id="_qhp1JzXVMjSBJWWWJ1j-16" value="Extends" style="endArrow=block;endSize=16;endFill=0;html=1;rounded=0;exitX=1;exitY=0.5;exitDx=0;exitDy=0;entryX=0;entryY=0.5;entryDx=0;entryDy=0;" edge="1" parent="1" source="_qhp1JzXVMjSBJWWWJ1j-3" target="_qhp1JzXVMjSBJWWWJ1j-10">
          <mxGeometry width="160" relative="1" as="geometry">
            <mxPoint x="120" y="130" as="sourcePoint" />
            <mxPoint x="280" y="130" as="targetPoint" />
          </mxGeometry>
        </mxCell>
        <mxCell id="_qhp1JzXVMjSBJWWWJ1j-18" value="Extends" style="endArrow=block;endSize=16;endFill=0;html=1;rounded=0;exitX=1;exitY=0.5;exitDx=0;exitDy=0;entryX=0;entryY=0.5;entryDx=0;entryDy=0;" edge="1" parent="1" source="_qhp1JzXVMjSBJWWWJ1j-3" target="_qhp1JzXVMjSBJWWWJ1j-8">
          <mxGeometry width="160" relative="1" as="geometry">
            <mxPoint x="140" y="150" as="sourcePoint" />
            <mxPoint x="300" y="150" as="targetPoint" />
          </mxGeometry>
        </mxCell>
        <mxCell id="_qhp1JzXVMjSBJWWWJ1j-19" value="Extends" style="endArrow=block;endSize=16;endFill=0;html=1;rounded=0;exitX=1;exitY=0.5;exitDx=0;exitDy=0;entryX=0;entryY=0.5;entryDx=0;entryDy=0;" edge="1" parent="1" source="_qhp1JzXVMjSBJWWWJ1j-3" target="_qhp1JzXVMjSBJWWWJ1j-7">
          <mxGeometry width="160" relative="1" as="geometry">
            <mxPoint x="150" y="160" as="sourcePoint" />
            <mxPoint x="310" y="160" as="targetPoint" />
          </mxGeometry>
        </mxCell>
        <mxCell id="_qhp1JzXVMjSBJWWWJ1j-20" value="Extends" style="endArrow=block;endSize=16;endFill=0;html=1;rounded=0;exitX=1;exitY=0.5;exitDx=0;exitDy=0;entryX=0;entryY=0.5;entryDx=0;entryDy=0;" edge="1" parent="1" source="_qhp1JzXVMjSBJWWWJ1j-3" target="_qhp1JzXVMjSBJWWWJ1j-6">
          <mxGeometry width="160" relative="1" as="geometry">
            <mxPoint x="160" y="170" as="sourcePoint" />
            <mxPoint x="320" y="170" as="targetPoint" />
          </mxGeometry>
        </mxCell>
      </root>
    </mxGraphModel>
  </diagram>
</mxfile>
